<svg width="655" height="194" viewBox="0 0 655 194" fill="none" xmlns="http://www.w3.org/2000/svg">
<path d="M142.991 110.756C143.649 110.762 145.719 110.731 147.881 111.273C150.338 111.889 152.506 113.082 154.391 114.788L154.765 115.136L155.287 115.638L155.736 116.207L156.064 116.633C157.675 118.773 158.848 121.085 159.536 123.709C160.207 126.264 160.295 128.682 160.295 130.587L160.303 131.692V131.703L160.312 135.347L160.32 137.865V137.871L160.324 143.184L160.331 146.52L160.347 149.873V149.883L160.357 155.131L160.365 157.556L160.366 157.562L160.383 160.358C160.392 163.022 160.356 165.288 160.1 167.112C159.589 170.759 158.206 173.04 157.339 174.557L156.639 175.782L155.639 176.779C154.018 178.396 152.041 179.883 149.527 180.865C147.093 181.817 144.823 182.029 143.074 182.069L143.075 182.07C142.728 182.079 142.377 182.087 142.019 182.096L141.96 182.098C141.391 182.108 141.391 182.108 140.81 182.119L140.809 182.118C140.428 182.127 140.022 182.137 139.631 182.146H139.623C138.284 182.174 136.949 182.199 135.624 182.224L135.625 182.225C135.183 182.233 134.712 182.241 134.256 182.25H134.253C130.895 182.313 127.54 182.365 124.192 182.411L124.193 182.412L122.773 182.433H122.767C120.041 182.47 117.31 182.496 114.575 182.511L114.576 182.512C113.75 182.517 112.924 182.525 112.099 182.534H112.092C110.899 182.547 109.716 182.551 108.558 182.553C108.093 182.56 108.059 182.561 107.558 182.568L107.457 182.57L107.356 182.569C103.103 182.553 98.1106 181.666 93.4553 177.293L92.6047 176.493L91.9504 175.526C88.1903 169.972 88.543 164.168 88.5833 161.631C88.5864 161.22 88.5888 160.81 88.592 160.387V160.385L88.6194 157.521C88.6348 155.91 88.6424 154.292 88.6477 152.654V152.651L88.6682 148.479C88.6773 147.088 88.6885 145.698 88.7014 144.31C88.7159 142.728 88.7272 141.156 88.7327 139.589L88.7463 137.186C88.7524 136.393 88.761 135.601 88.7698 134.811H88.7688C88.7739 134.249 88.7773 133.688 88.7776 133.129V133.123L88.7756 131.793C88.7887 128.34 89.0886 122.572 93.1917 117.314L93.4885 116.934L93.8186 116.583C99.5489 110.487 106.487 110.796 109.263 110.808C109.64 110.806 110.017 110.803 110.406 110.801H110.416L114.335 110.796L114.334 110.797C115.22 110.795 116.105 110.793 116.99 110.791H122.654L122.655 110.79C125.033 110.792 127.418 110.785 129.817 110.775H129.824L135.406 110.771V110.77C136.277 110.769 137.148 110.768 138.019 110.764H138.025L139.94 110.761C140.565 110.761 141.186 110.763 141.801 110.766C142.132 110.763 142.464 110.759 142.805 110.756H142.991Z" stroke="black" stroke-width="21"/>
<path d="M65.9238 15.0565C66.5817 15.0624 68.6514 15.0321 70.8135 15.5741C73.27 16.19 75.4384 17.3828 77.3232 19.0887L77.6973 19.4364L78.2197 19.9384L78.668 20.5077L78.9961 20.9335C80.6076 23.0734 81.7802 25.3859 82.4688 28.0096C83.1393 30.5651 83.227 32.9822 83.2275 34.8876L83.2354 35.993V36.0038L83.2441 39.6473L83.252 42.1659V42.1718L83.2568 47.4843L83.2637 50.8202L83.2793 54.1737V54.1835L83.2891 59.4315L83.2979 61.8563L83.2988 61.8632L83.3154 64.6591C83.324 67.3229 83.288 69.5883 83.0322 71.413C82.5211 75.0592 81.1383 77.3409 80.2715 78.8573L79.5713 80.0829L78.5713 81.08C76.9503 82.6971 74.9733 84.1832 72.459 85.1659C70.025 86.1172 67.7558 86.33 66.0068 86.37L66.0078 86.371C65.6603 86.3795 65.3092 86.3876 64.9512 86.3964L64.8926 86.3983C64.3231 86.4091 64.3231 86.4088 63.7422 86.4198L63.7412 86.4188C63.3607 86.4273 62.954 86.4374 62.5635 86.4462H62.5557C61.2168 86.4751 59.8815 86.4999 58.5566 86.5243L58.5576 86.5253C58.1155 86.5337 57.6444 86.5419 57.1885 86.5507H57.1855C53.8269 86.6138 50.4721 86.6653 47.124 86.7118L47.125 86.7128L45.7051 86.7333H45.6992C42.9731 86.7703 40.2424 86.7964 37.5078 86.8114L37.5088 86.8124C36.6827 86.8176 35.8568 86.8254 35.0312 86.8348H35.0244C33.8317 86.8477 32.6488 86.8513 31.4902 86.8534C31.0259 86.8605 30.9917 86.8614 30.4902 86.869L30.3896 86.871L30.2881 86.87C26.0356 86.8533 21.043 85.967 16.3877 81.5936L15.5371 80.7938L14.8828 79.827C11.1227 74.2728 11.4754 68.4685 11.5156 65.9315C11.5188 65.5211 11.5211 65.1102 11.5244 64.6874V64.6854L11.5518 61.8212C11.5672 60.2107 11.5748 58.5929 11.5801 56.955V56.952L11.6006 52.7792C11.6097 51.3888 11.6209 49.9991 11.6338 48.6102C11.6483 47.0287 11.6596 45.4564 11.665 43.8895L11.6787 41.4862C11.6848 40.6933 11.6934 39.9016 11.7021 39.1112H11.7012C11.7063 38.5496 11.7097 37.9889 11.71 37.4296V37.4237L11.708 36.0936C11.7211 32.6409 12.021 26.8727 16.124 21.6151L16.4209 21.2343L16.751 20.8837C22.4813 14.7874 29.4194 15.0966 32.1953 15.1083C32.5722 15.1062 32.9496 15.1036 33.3379 15.1014H33.3486L37.2676 15.0966L37.2666 15.0975C38.152 15.0959 39.0374 15.0937 39.9229 15.0917H45.5859L45.5869 15.0907C47.9655 15.0932 50.3499 15.0859 52.749 15.076H52.7568L58.3379 15.0712V15.0702C59.2089 15.07 60.0804 15.0686 60.9512 15.0643H60.957L62.8721 15.0614C63.4973 15.0621 64.1183 15.0638 64.7334 15.0663C65.0643 15.0633 65.3964 15.0596 65.7373 15.0565H65.9238Z" stroke="black" stroke-width="21"/>
<path d="M124.782 52.4512C130.913 55.8216 135.554 61.5217 137.547 68.3114C138.546 71.9335 138.579 75.5974 138.588 79.3295C138.593 80.3634 138.614 81.3962 138.636 82.4299C138.64 83.0941 138.643 83.7583 138.645 84.4226C138.653 84.7279 138.662 85.0332 138.67 85.3478C138.648 87.8107 137.914 88.7825 136.259 90.4532C134.029 92.0487 132.114 92.4565 129.39 92.1899C127.364 91.4391 125.599 90.6343 124.212 88.9337C123.548 87.1434 123.33 85.4328 123.29 83.5288C123.278 83.1245 123.266 82.7201 123.253 82.3035C123.231 81.4681 123.212 80.6325 123.196 79.797C123.051 75.3634 122.218 71.3559 118.927 68.2028C116.957 66.8746 115.243 66.5625 112.917 66.4391C110.513 66.2472 108.879 65.5855 107.068 63.9698C105.094 61.4614 104.609 59.3379 104.922 56.155C105.68 53.5377 107.001 51.9865 109.214 50.511C113.744 48.2283 120.455 50.4829 124.782 52.4512Z" fill="#010101"/>
<path d="M50.4485 110.806C52.3078 111.919 53.5901 113.581 54.2667 115.634C54.3111 116.443 54.3332 117.253 54.3422 118.063C54.3575 118.788 54.3575 118.788 54.3732 119.528C54.3914 120.536 54.4049 121.545 54.4134 122.554C54.4981 126.027 54.7738 129.589 56.9768 132.423C58.7813 134.086 61.1405 134.859 63.3905 135.704C65.4999 136.561 66.4738 137.411 67.5743 139.513C68.3502 141.867 68.4773 144.546 67.3597 146.812C66.1739 148.551 64.8396 149.682 62.8522 150.367C57.3067 151.087 52.8589 149.801 48.4312 146.442C42.828 141.824 39.4618 136.164 38.5176 128.876C37.6016 116.833 37.6016 116.833 39.9396 112.649C43.1105 109.78 46.512 109.165 50.4485 110.806Z" fill="#010101"/>
<path d="M329.278 36.4545V147H309.091L260.997 77.4233H260.188V147H236.815V36.4545H257.327L305.043 105.977H306.014V36.4545H329.278ZM385.941 148.619C377.413 148.619 370.072 146.892 363.918 143.438C357.801 139.947 353.087 135.017 349.776 128.648C346.466 122.242 344.81 114.668 344.81 105.923C344.81 97.3949 346.466 89.91 349.776 83.4688C353.087 77.0275 357.747 72.0076 363.756 68.4091C369.802 64.8106 376.891 63.0114 385.023 63.0114C390.493 63.0114 395.585 63.893 400.299 65.6562C405.049 67.3835 409.187 69.9924 412.714 73.483C416.276 76.9735 419.047 81.3636 421.026 86.6534C423.005 91.9072 423.995 98.0606 423.995 105.114V111.429H353.987V97.179H402.35C402.35 93.8684 401.63 90.9356 400.191 88.3807C398.752 85.8258 396.755 83.8286 394.2 82.3892C391.681 80.9138 388.748 80.1761 385.401 80.1761C381.911 80.1761 378.816 80.9858 376.117 82.6051C373.454 84.1884 371.367 86.3295 369.856 89.0284C368.344 91.6913 367.571 94.66 367.535 97.9347V111.483C367.535 115.585 368.29 119.13 369.802 122.116C371.349 125.103 373.526 127.406 376.333 129.026C379.14 130.645 382.469 131.455 386.319 131.455C388.874 131.455 391.213 131.095 393.336 130.375C395.459 129.655 397.276 128.576 398.788 127.136C400.299 125.697 401.451 123.934 402.242 121.847L423.509 123.25C422.43 128.36 420.217 132.822 416.87 136.636C413.559 140.415 409.277 143.366 404.023 145.489C398.806 147.576 392.778 148.619 385.941 148.619ZM456.732 64.0909L471.954 93.0767L487.553 64.0909H511.141L487.121 105.545L511.789 147H488.309L471.954 118.338L455.869 147H432.119L456.732 105.545L432.982 64.0909H456.732ZM525.229 147V36.4545H598.423V55.7244H548.602V82.0653H593.565V101.335H548.602V147H525.229ZM613.712 147V64.0909H636.706V147H613.712ZM625.263 53.4034C621.844 53.4034 618.911 52.2699 616.465 50.0028C614.054 47.6998 612.848 44.947 612.848 41.7443C612.848 38.5776 614.054 35.8608 616.465 33.5938C618.911 31.2907 621.844 30.1392 625.263 30.1392C628.681 30.1392 631.596 31.2907 634.007 33.5938C636.454 35.8608 637.678 38.5776 637.678 41.7443C637.678 44.947 636.454 47.6998 634.007 50.0028C631.596 52.2699 628.681 53.4034 625.263 53.4034Z" fill="black"/>
</svg>
